<?xml version="1.0" encoding="UTF-8" standalone="no"?>
<!-- Created with Inkscape (http://www.inkscape.org/) -->

<svg
   xmlns:dc="http://purl.org/dc/elements/1.1/"
   xmlns:cc="http://creativecommons.org/ns#"
   xmlns:rdf="http://www.w3.org/1999/02/22-rdf-syntax-ns#"
   xmlns:svg="http://www.w3.org/2000/svg"
   xmlns="http://www.w3.org/2000/svg"
   xmlns:sodipodi="http://sodipodi.sourceforge.net/DTD/sodipodi-0.dtd"
   xmlns:inkscape="http://www.inkscape.org/namespaces/inkscape"
   width="512"
   height="512"
   viewBox="0 0 512.00001 512.00001"
   id="svg2"
   version="1.1"
   inkscape:version="0.91 r13725"
   sodipodi:docname="icon.svg"
   inkscape:export-filename="/home/tux/src/playground/qtwaifu2x/images/icon.png"
   inkscape:export-xdpi="90"
   inkscape:export-ydpi="90">
  <defs
     id="defs4">
    <filter
       inkscape:collect="always"
       style="color-interpolation-filters:sRGB"
       id="filter5750"
       x="-0.098400006"
       width="1.1968"
       y="-0.098399994"
       height="1.1968">
      <feGaussianBlur
         inkscape:collect="always"
         stdDeviation="16.072"
         id="feGaussianBlur5752" />
    </filter>
  </defs>
  <sodipodi:namedview
     id="base"
     pagecolor="#ffffff"
     bordercolor="#666666"
     borderopacity="1.0"
     inkscape:pageopacity="0.0"
     inkscape:pageshadow="2"
     inkscape:zoom="0.49497475"
     inkscape:cx="-445.713"
     inkscape:cy="255.34493"
     inkscape:document-units="px"
     inkscape:current-layer="layer1"
     showgrid="true"
     units="px"
     inkscape:snap-object-midpoints="true"
     inkscape:snap-center="true"
     inkscape:object-paths="true"
     inkscape:snap-intersection-paths="true"
     inkscape:object-nodes="true"
     inkscape:snap-smooth-nodes="true"
     inkscape:snap-midpoints="true"
     inkscape:window-width="1920"
     inkscape:window-height="1016"
     inkscape:window-x="0"
     inkscape:window-y="0"
     inkscape:window-maximized="1">
    <inkscape:grid
       type="xygrid"
       id="grid4136"
       spacingx="8.0000002"
       spacingy="8.0000002"
       empspacing="8" />
  </sodipodi:namedview>
  <metadata
     id="metadata7">
    <rdf:RDF>
      <cc:Work
         rdf:about="">
        <dc:format>image/svg+xml</dc:format>
        <dc:type
           rdf:resource="http://purl.org/dc/dcmitype/StillImage" />
        <dc:title></dc:title>
      </cc:Work>
    </rdf:RDF>
  </metadata>
  <g
     inkscape:label="Layer 1"
     inkscape:groupmode="layer"
     id="layer1"
     transform="translate(0,-540.36216)">
    <g
       id="g4148"
       transform="translate(15.999986,15.999997)"
       style="opacity:0.631;filter:url(#filter5750)">
      <path
         style="opacity:0.99;fill:#000000;fill-opacity:1;fill-rule:evenodd;stroke:none;stroke-width:1px;stroke-linecap:butt;stroke-linejoin:miter;stroke-opacity:1"
         d="m 312.00001,980.36215 -255.999996,0 0,-64 c 0,0 191.999996,-127.99999 191.999996,-191.99999 0,-32 -16,-64 -63.99999,-64 -48,0 -64,48 -64,64 -16,0 -48.000006,0 -64.000006,0 0,-48 48.000006,-128 128.000006,-128 79.99999,0 127.99999,48 127.99999,128 0,80 -159.99999,191.99999 -159.99999,191.99999 l 159.99999,0 z"
         id="path4150"
         inkscape:connector-curvature="0"
         sodipodi:nodetypes="ccccsccscccc" />
      <path
         style="fill:#000000;fill-opacity:1;fill-rule:evenodd;stroke:none;stroke-width:1px;stroke-linecap:butt;stroke-linejoin:miter;stroke-opacity:1"
         d="m 192,796.36214 63.99999,0 64,64 64,-64 64,0 -96,96 96,96.00004 -64,0 -64,-64.00004 -64,64.00004 -63.99999,0 95.99999,-96.00004 z"
         id="path4152"
         inkscape:connector-curvature="0" />
    </g>
    <g
       id="g4144">
      <path
         sodipodi:nodetypes="ccccsccscccc"
         inkscape:connector-curvature="0"
         id="path4140"
         d="m 320,988.36216 -256,0 0,-64 c 0,0 192,-127.99999 192,-191.99999 0,-32 -16,-64 -63.99999,-64 -48,0 -64,48 -64,64 -16,0 -48.00001,0 -64.00001,0 0,-48 48.00001,-128 128.00001,-128 79.99999,0 127.99999,48 127.99999,128 0,80 -159.99999,191.99999 -159.99999,191.99999 l 159.99999,0 z"
         style="fill:#5b9059;fill-opacity:1;fill-rule:evenodd;stroke:none;stroke-width:1px;stroke-linecap:butt;stroke-linejoin:miter;stroke-opacity:1" />
      <path
         inkscape:connector-curvature="0"
         id="path4142"
         d="m 192,796.36214 63.99999,0 64,64 64,-64 64,0 -96,96 96,96.00004 -64,0 -64,-64.00004 -64,64.00004 -63.99999,0 95.99999,-96.00004 z"
         style="fill:#9d4c4c;fill-opacity:1;fill-rule:evenodd;stroke:none;stroke-width:1px;stroke-linecap:butt;stroke-linejoin:miter;stroke-opacity:1" />
    </g>
  </g>
</svg>
